<svg id="visual" viewBox="0 0 600 900" width="600" height="900" xmlns="http://www.w3.org/2000/svg" xmlns:xlink="http://www.w3.org/1999/xlink" version="1.1"><rect x="0" y="0" width="600" height="900" fill="#ffffff"></rect><defs><linearGradient id="grad1_0" x1="0%" y1="0%" x2="100%" y2="100%"><stop offset="30%" stop-color="#ffffff" stop-opacity="1"></stop><stop offset="70%" stop-color="#ffffff" stop-opacity="1"></stop></linearGradient></defs><defs><linearGradient id="grad2_0" x1="0%" y1="0%" x2="100%" y2="100%"><stop offset="30%" stop-color="#ffffff" stop-opacity="1"></stop><stop offset="70%" stop-color="#ffffff" stop-opacity="1"></stop></linearGradient></defs><g transform="translate(600, 0)"><path d="M0 405.6C-56.4 403.8 -112.8 402 -155.2 374.7C-197.7 347.5 -226.1 294.8 -251.7 251.7C-277.3 208.6 -300 175.1 -325.2 134.7C-350.4 94.3 -378 47.2 -405.6 0L0 0Z" fill="#009900"></path></g><g transform="translate(0, 900)"><path d="M0 -405.6C48.3 -386.6 96.5 -367.6 144.7 -349.2C192.8 -330.8 240.8 -313 281.4 -281.4C322.1 -249.8 355.3 -204.4 374.7 -155.2C394.2 -106 399.9 -53 405.6 0L0 0Z" fill="#009900"></path></g></svg>