<svg id="visual" viewBox="0 0 600 900" width="600" height="900" xmlns="http://www.w3.org/2000/svg" xmlns:xlink="http://www.w3.org/1999/xlink" version="1.1"><rect x="0" y="0" width="600" height="900" fill="#ffffff"></rect><defs><linearGradient id="grad1_0" x1="0%" y1="0%" x2="100%" y2="100%"><stop offset="30%" stop-color="#009900" stop-opacity="1"></stop><stop offset="70%" stop-color="#009900" stop-opacity="1"></stop></linearGradient></defs><defs><linearGradient id="grad1_1" x1="0%" y1="0%" x2="100%" y2="100%"><stop offset="30%" stop-color="#009900" stop-opacity="1"></stop><stop offset="70%" stop-color="#99cd89" stop-opacity="1"></stop></linearGradient></defs><defs><linearGradient id="grad1_2" x1="0%" y1="0%" x2="100%" y2="100%"><stop offset="30%" stop-color="#ffffff" stop-opacity="1"></stop><stop offset="70%" stop-color="#99cd89" stop-opacity="1"></stop></linearGradient></defs><defs><linearGradient id="grad2_0" x1="0%" y1="0%" x2="100%" y2="100%"><stop offset="30%" stop-color="#009900" stop-opacity="1"></stop><stop offset="70%" stop-color="#009900" stop-opacity="1"></stop></linearGradient></defs><defs><linearGradient id="grad2_1" x1="0%" y1="0%" x2="100%" y2="100%"><stop offset="30%" stop-color="#99cd89" stop-opacity="1"></stop><stop offset="70%" stop-color="#009900" stop-opacity="1"></stop></linearGradient></defs><defs><linearGradient id="grad2_2" x1="0%" y1="0%" x2="100%" y2="100%"><stop offset="30%" stop-color="#99cd89" stop-opacity="1"></stop><stop offset="70%" stop-color="#ffffff" stop-opacity="1"></stop></linearGradient></defs><g transform="translate(600, 0)"><path d="M0 486.7C-58.5 465.2 -116.9 443.6 -174.5 421.3C-232.1 398.9 -288.8 375.8 -337.3 337.3C-385.8 298.8 -426.2 245 -449.7 186.3C-473.2 127.5 -480 63.8 -486.7 0L0 0Z" fill="#cde6c3"></path><path d="M0 324.5C-39 310.1 -78 295.8 -116.3 280.9C-154.7 266 -192.5 250.5 -224.9 224.9C-257.2 199.2 -284.1 163.4 -299.8 124.2C-315.5 85 -320 42.5 -324.5 0L0 0Z" fill="#62b350"></path><path d="M0 162.2C-19.5 155.1 -39 147.9 -58.2 140.4C-77.4 133 -96.3 125.3 -112.4 112.4C-128.6 99.6 -142.1 81.7 -149.9 62.1C-157.7 42.5 -160 21.3 -162.2 0L0 0Z" fill="#009900"></path></g><g transform="translate(0, 900)"><path d="M0 -486.7C61.8 -471.2 123.6 -455.6 177.9 -429.6C232.2 -403.6 279 -367.2 326.7 -326.7C374.3 -286.1 422.9 -241.4 449.7 -186.3C476.5 -131.1 481.6 -65.6 486.7 0L0 0Z" fill="#cde6c3"></path><path d="M0 -324.5C41.2 -314.1 82.4 -303.7 118.6 -286.4C154.8 -269.1 186 -244.8 217.8 -217.8C249.6 -190.8 281.9 -160.9 299.8 -124.2C317.7 -87.4 321.1 -43.7 324.5 0L0 0Z" fill="#62b350"></path><path d="M0 -162.2C20.6 -157.1 41.2 -151.9 59.3 -143.2C77.4 -134.5 93 -122.4 108.9 -108.9C124.8 -95.4 141 -80.5 149.9 -62.1C158.8 -43.7 160.5 -21.9 162.2 0L0 0Z" fill="#009900"></path></g></svg>