<svg xmlns="http://www.w3.org/2000/svg" xmlns:xlink="http://www.w3.org/1999/xlink" viewBox="0,0,256,256" width="100px" height="100px"><g fill="none" fill-rule="nonzero" stroke="none" stroke-width="1" stroke-linecap="butt" stroke-linejoin="miter" stroke-miterlimit="10" stroke-dasharray="" stroke-dashoffset="0" font-family="none" font-weight="none" font-size="none" text-anchor="none" style="mix-blend-mode: normal"><g transform="scale(2.56,2.56)"><path d="M87.234,55.551c0.3,-0.616 0.566,-1.264 0.796,-1.943c2.633,-7.77 -1.349,-17.078 -9.733,-19.325c-0.906,-11.383 -8.906,-19.193 -17.941,-20.525c-10.341,-1.525 -19.814,5.044 -22.966,15.485c-3.799,-1.346 -7.501,-1.182 -10.99,0.857c-1.583,0.732 -3.031,1.812 -4.33,3.233c-1.907,2.086 -3.147,4.719 -3.652,7.495c-0.748,0.118 -1.483,0.236 -2.176,0.484c-4.04,1.449 -6.589,4.431 -7.288,8.923c-0.435,2.797 0.443,5.587 0.933,6.714c1.935,4.455 6.422,6.98 10.981,6.312c0.227,-0.033 0.557,0.069 0.752,0.233c0.241,7.12 3.698,13.417 8.884,17.014c8.321,5.772 19.027,3.994 25.781,-3.921c2.894,2.96 6.338,4.398 10.384,3.876c4.023,-0.519 7.147,-2.739 9.426,-6.349c1.053,0.283 2.051,0.691 3.083,0.804c4.042,0.442 7.297,-1.184 9.732,-4.8c0.083,-0.124 0.203,-0.219 0.306,-0.328c0.348,-0.798 0.696,-1.596 1.044,-2.394c0.155,-1.211 0.429,-2.423 0.443,-3.632c0.039,-3.256 -1.292,-6.224 -3.469,-8.213z" fill="#c8ede6"></path><path d="M39.337,33.423c0,0 11.691,0 11.762,0c2.7,0 4.888,-2.189 4.888,-4.889c0,-2.355 -1.666,-4.321 -3.884,-4.784c0.026,-0.206 0.043,-0.415 0.043,-0.628c0,-2.796 -2.267,-5.063 -5.063,-5.063c-1.651,0 -3.113,0.794 -4.037,2.017c-0.236,-3.113 -3.017,-5.514 -6.27,-5.116c-2.379,0.291 -4.346,2.13 -4.784,4.486c-0.14,0.756 -0.126,1.489 0.014,2.177c-0.638,-0.687 -1.546,-1.119 -2.557,-1.119c-1.85,0 -3.361,1.441 -3.48,3.261c-0.84,-0.186 -1.754,-0.174 -2.717,0.188c-1.84,0.691 -3.15,2.423 -3.227,4.387c-0.109,2.789 2.12,5.085 4.885,5.085c0.21,0 0.948,0 1.118,0h10.151" fill="#fdfcef"></path><path d="M51.099,33.923h-11.762c-0.276,0 -0.5,-0.224 -0.5,-0.5c0,-0.276 0.224,-0.5 0.5,-0.5h11.762c2.42,0 4.389,-1.969 4.389,-4.389c0,-2.066 -1.466,-3.873 -3.486,-4.295c-0.255,-0.053 -0.426,-0.293 -0.394,-0.552c0.023,-0.186 0.039,-0.374 0.039,-0.565c0,-2.517 -2.047,-4.563 -4.562,-4.563c-1.438,0 -2.765,0.663 -3.638,1.818c-0.125,0.166 -0.338,0.237 -0.54,0.178c-0.199,-0.059 -0.342,-0.234 -0.357,-0.441c-0.104,-1.377 -0.779,-2.671 -1.85,-3.549c-1.083,-0.888 -2.456,-1.282 -3.86,-1.109c-2.166,0.266 -3.956,1.943 -4.353,4.081c-0.124,0.667 -0.12,1.335 0.013,1.986c0.044,0.22 -0.062,0.442 -0.262,0.544c-0.2,0.104 -0.443,0.06 -0.595,-0.104c-0.575,-0.618 -1.353,-0.959 -2.19,-0.959c-1.569,0 -2.878,1.228 -2.981,2.794c-0.01,0.146 -0.082,0.279 -0.199,0.366c-0.117,0.089 -0.268,0.12 -0.408,0.089c-0.841,-0.185 -1.637,-0.132 -2.433,0.167c-1.669,0.627 -2.835,2.209 -2.903,3.938c-0.047,1.207 0.387,2.35 1.221,3.218c0.835,0.869 1.959,1.348 3.164,1.348h11.269c0.276,0 0.5,0.224 0.5,0.5c0,0.276 -0.224,0.5 -0.5,0.5h-11.271c-1.479,0 -2.858,-0.588 -3.884,-1.654c-1.025,-1.066 -1.558,-2.469 -1.5,-3.95c0.083,-2.126 1.51,-4.069 3.55,-4.835c0.8,-0.301 1.626,-0.398 2.468,-0.299c0.377,-1.822 1.998,-3.182 3.905,-3.182c0.684,0 1.354,0.18 1.944,0.51c0,-0.386 0.035,-0.772 0.106,-1.159c0.477,-2.562 2.621,-4.573 5.215,-4.891c1.679,-0.205 3.32,0.266 4.616,1.328c1.003,0.823 1.716,1.951 2.038,3.193c1.012,-0.916 2.319,-1.426 3.714,-1.426c3.067,0 5.562,2.496 5.562,5.563c0,0.083 -0.002,0.166 -0.007,0.248c2.254,0.673 3.848,2.776 3.848,5.164c0.001,2.973 -2.416,5.389 -5.388,5.389z" fill="#472b29"></path><path d="M36.504,22.655c-1.808,-0.119 -3.365,1.13 -3.476,2.789c-0.014,0.206 -0.005,0.409 0.025,0.606c-0.349,-0.394 -0.865,-0.661 -1.458,-0.7c-1.085,-0.071 -2.022,0.645 -2.158,1.62c-0.197,-0.054 -0.403,-0.09 -0.616,-0.104c-1.582,-0.104 -2.944,0.989 -3.042,2.441" fill="#fdfcef"></path><path d="M25.78,29.556c-0.006,0 -0.012,0 -0.017,-0.001c-0.138,-0.009 -0.242,-0.128 -0.233,-0.266c0.107,-1.587 1.588,-2.789 3.308,-2.674c0.137,0.009 0.273,0.026 0.409,0.053c0.274,-0.968 1.256,-1.645 2.366,-1.567c0.425,0.027 0.823,0.159 1.164,0.382c0,-0.019 0.002,-0.037 0.003,-0.056c0.12,-1.795 1.787,-3.16 3.742,-3.021c0.138,0.009 0.242,0.128 0.233,0.266c-0.009,0.138 -0.124,0.255 -0.266,0.232c-1.651,-0.105 -3.108,1.037 -3.21,2.557c-0.012,0.184 -0.004,0.37 0.023,0.553c0.017,0.109 -0.041,0.217 -0.141,0.264c-0.1,0.047 -0.219,0.022 -0.293,-0.061c-0.323,-0.365 -0.78,-0.584 -1.287,-0.617c-0.951,-0.034 -1.775,0.556 -1.894,1.404c-0.01,0.071 -0.05,0.135 -0.11,0.175c-0.06,0.039 -0.133,0.051 -0.204,0.032c-0.187,-0.051 -0.377,-0.083 -0.567,-0.097c-1.44,-0.092 -2.687,0.896 -2.775,2.209c-0.011,0.132 -0.121,0.233 -0.251,0.233z" fill="#472b29"></path><path d="M53.079,24.323c-1.699,-0.801 -3.664,-0.234 -4.389,1.267c-0.09,0.186 -0.157,0.379 -0.201,0.574" fill="#fdfcef"></path><path d="M48.489,26.414c-0.018,0 -0.037,-0.002 -0.056,-0.006c-0.134,-0.031 -0.219,-0.165 -0.188,-0.3c0.049,-0.217 0.123,-0.428 0.219,-0.627c0.783,-1.621 2.902,-2.239 4.721,-1.385c0.125,0.06 0.179,0.208 0.12,0.333c-0.059,0.126 -0.209,0.176 -0.333,0.12c-1.574,-0.744 -3.394,-0.227 -4.058,1.149c-0.08,0.165 -0.141,0.34 -0.182,0.521c-0.026,0.117 -0.129,0.195 -0.243,0.195z" fill="#472b29"></path><path d="M14.899,57h-10.03c-0.276,0 -0.5,-0.224 -0.5,-0.5c0,-0.276 0.224,-0.5 0.5,-0.5h10.03c0.276,0 0.5,0.224 0.5,0.5c0,0.276 -0.223,0.5 -0.5,0.5zM18.28,56.5c0,-0.276 -0.224,-0.5 -0.5,-0.5h-1.446c-0.276,0 -0.5,0.224 -0.5,0.5c0,0.276 0.224,0.5 0.5,0.5h1.446c0.277,0 0.5,-0.224 0.5,-0.5zM22.335,56.5c0,-0.276 -0.224,-0.5 -0.5,-0.5h-2.546c-0.276,0 -0.5,0.224 -0.5,0.5c0,0.276 0.224,0.5 0.5,0.5h2.546c0.277,0 0.5,-0.224 0.5,-0.5zM22.335,58.5c0,-0.276 -0.224,-0.5 -0.5,-0.5h-9.616c-0.276,0 -0.5,0.224 -0.5,0.5c0,0.276 0.224,0.5 0.5,0.5h9.616c0.277,0 0.5,-0.224 0.5,-0.5zM10.987,58.5c0,-0.276 -0.224,-0.5 -0.5,-0.5h-0.58c-0.276,0 -0.5,0.224 -0.5,0.5c0,0.276 0.224,0.5 0.5,0.5h0.58c0.276,0 0.5,-0.224 0.5,-0.5zM8.611,58.5c0,-0.276 -0.224,-0.5 -0.5,-0.5h-1.457c-0.276,0 -0.5,0.224 -0.5,0.5c0,0.276 0.224,0.5 0.5,0.5h1.457c0.276,0 0.5,-0.224 0.5,-0.5zM17.746,54.5c0,-0.276 -0.224,-0.5 -0.5,-0.5h-5.027c-0.276,0 -0.5,0.224 -0.5,0.5c0,0.276 0.224,0.5 0.5,0.5h5.027c0.277,0 0.5,-0.224 0.5,-0.5zM17.746,52.5c0,-0.276 -0.224,-0.5 -0.5,-0.5h-1.257c-0.276,0 -0.5,0.224 -0.5,0.5c0,0.276 0.224,0.5 0.5,0.5h1.257c0.277,0 0.5,-0.224 0.5,-0.5zM14.477,60.5c0,-0.276 -0.224,-0.5 -0.5,-0.5h-1.758c-0.276,0 -0.5,0.224 -0.5,0.5c0,0.276 0.224,0.5 0.5,0.5h1.758c0.277,0 0.5,-0.224 0.5,-0.5z" fill="#ffffff"></path><path d="M72.744,26h-10.03c-0.276,0 -0.5,-0.224 -0.5,-0.5c0,-0.276 0.224,-0.5 0.5,-0.5h10.031c0.276,0 0.5,0.224 0.5,0.5c0,0.276 -0.224,0.5 -0.501,0.5zM76.125,25.5c0,-0.276 -0.224,-0.5 -0.5,-0.5h-1.446c-0.276,0 -0.5,0.224 -0.5,0.5c0,0.276 0.224,0.5 0.5,0.5h1.446c0.277,0 0.5,-0.224 0.5,-0.5zM80.18,25.5c0,-0.276 -0.224,-0.5 -0.5,-0.5h-2.546c-0.276,0 -0.5,0.224 -0.5,0.5c0,0.276 0.224,0.5 0.5,0.5h2.546c0.276,0 0.5,-0.224 0.5,-0.5zM78.154,21.5c0,-0.276 -0.224,-0.5 -0.5,-0.5h-9.616c-0.276,0 -0.5,0.224 -0.5,0.5c0,0.276 0.224,0.5 0.5,0.5h9.616c0.276,0 0.5,-0.224 0.5,-0.5zM66.806,21.5c0,-0.276 -0.224,-0.5 -0.5,-0.5h-0.58c-0.276,0 -0.5,0.224 -0.5,0.5c0,0.276 0.224,0.5 0.5,0.5h0.58c0.277,0 0.5,-0.224 0.5,-0.5zM64.429,21.5c0,-0.276 -0.224,-0.5 -0.5,-0.5h-1.456c-0.276,0 -0.5,0.224 -0.5,0.5c0,0.276 0.224,0.5 0.5,0.5h1.456c0.277,0 0.5,-0.224 0.5,-0.5zM75.591,23.5c0,-0.276 -0.224,-0.5 -0.5,-0.5h-5.027c-0.276,0 -0.5,0.224 -0.5,0.5c0,0.276 0.224,0.5 0.5,0.5h5.027c0.276,0 0.5,-0.224 0.5,-0.5zM75.591,21.5c0,-0.276 -0.224,-0.5 -0.5,-0.5h-1.257c-0.276,0 -0.5,0.224 -0.5,0.5c0,0.276 0.224,0.5 0.5,0.5h1.257c0.276,0 0.5,-0.224 0.5,-0.5zM69.108,23.5c0,-0.276 -0.224,-0.5 -0.5,-0.5h-1.758c-0.276,0 -0.5,0.224 -0.5,0.5c0,0.276 0.224,0.5 0.5,0.5h1.758c0.277,0 0.5,-0.224 0.5,-0.5z" fill="#ffffff"></path><path d="M27.07,57.492l-0.118,-0.27c-0.479,-1.396 -0.381,-2.742 0.321,-4.062l3.447,-5.002l-1.605,-0.998c-0.103,-0.063 -0.109,-0.155 -0.095,-0.222c0.013,-0.065 0.054,-0.147 0.174,-0.165c0,0 8.689,-1.337 8.692,-1.337c0.114,0 0.19,0.054 0.22,0.133l3.402,8.851c0.017,0.045 0.034,0.113 -0.017,0.188c-0.042,0.061 -0.114,0.102 -0.18,0.102v0c-0.036,0 -0.072,-0.012 -0.111,-0.035l-1.614,-1.003l-5.135,7.61l-5.016,0.59z" fill="#94d82d"></path><path d="M37.985,46.13h0.005h-0.005M37.595,46.19l2.738,7.121l-0.948,-0.59l-0.755,1.118l-4.578,6.786l-4.225,0.497l-2.116,-3.916l-0.053,-0.12l-0.042,-0.093c-0.404,-1.211 -0.325,-2.337 0.24,-3.438l3.025,-4.396l0.831,-1.208l-1.105,-0.687l6.988,-1.074M37.911,44.735c-0.046,0 -0.093,0.003 -0.139,0.011l-8.683,1.336c-0.836,0.128 -1.061,1.227 -0.342,1.674l0.982,0.61l-3.072,4.466c-0.809,1.521 -0.894,3.08 -0.344,4.673c0.047,0.106 0.095,0.214 0.143,0.32l2.592,4.799l5.807,-0.683l4.937,-7.318l1.041,0.647c0.157,0.098 0.322,0.141 0.481,0.141c0.589,0 1.097,-0.599 0.85,-1.242l-3.402,-8.85c-0.138,-0.356 -0.479,-0.584 -0.851,-0.584z" fill="#472b29"></path><path d="M37.352,72.285c-1.52,0 -2.906,-0.844 -3.618,-2.201l-5.452,-10.395c1.271,0.74 2.68,1.243 4.641,1.243h14.175c0.111,0 0.202,0.095 0.202,0.211v10.931c0,0.116 -0.091,0.211 -0.202,0.211z" fill="#94d82d"></path><path d="M29.846,61.166c0.89,0.292 1.892,0.467 3.076,0.467h13.678v9.952h-9.248c-1.259,0 -2.408,-0.7 -2.999,-1.826l-4.507,-8.593M26.343,57.5l6.77,12.909c0.831,1.584 2.462,2.576 4.239,2.576h9.746c0.498,0 0.902,-0.408 0.902,-0.911v-10.93c0,-0.503 -0.404,-0.911 -0.902,-0.911h-14.175c-2.971,0 -4.589,-1.256 -6.58,-2.733z" fill="#472b29"></path><path d="M56.721,74.3c-0.062,0 -0.111,-0.025 -0.155,-0.08l-5.488,-6.777c-0.062,-0.076 -0.063,-0.188 -0.001,-0.265l6.039,-7.534c0.045,-0.055 0.095,-0.08 0.157,-0.08c0.002,0 0.216,0.002 0.219,0.21l0.028,2.257l8.865,-0.047l3.019,4.01l-2.592,4.252l-0.138,0.188c-1.001,1.167 -2.213,1.761 -3.707,1.819l-6.006,0.006l-0.021,1.831c-0.002,0.208 -0.216,0.21 -0.219,0.21z" fill="#94d82d"></path><path d="M57.662,60.082h0.005h-0.005M56.809,61.146l0.003,0.199l0.018,1.389l1.39,-0.007l7.818,-0.042l2.522,3.351l-2.316,3.8l-0.13,0.181l-0.006,0.008c-0.854,0.973 -1.882,1.473 -3.141,1.528l-5.312,0.005l-1.383,0.001l-0.014,1.168l-4.387,-5.417l4.938,-6.164M57.272,58.863c-0.254,0 -0.512,0.106 -0.702,0.343l-6.04,7.534c-0.268,0.334 -0.267,0.81 0.003,1.143l5.489,6.778c0.19,0.234 0.447,0.339 0.7,0.339c0.463,0 0.913,-0.351 0.919,-0.902l0.013,-1.142l5.341,-0.005c1.721,-0.067 3.11,-0.78 4.21,-2.058c0.068,-0.094 0.137,-0.19 0.205,-0.285l2.839,-4.657l-3.516,-4.672l-8.521,0.046l-0.02,-1.563c-0.008,-0.549 -0.458,-0.899 -0.92,-0.899z" fill="#472b29"></path><path d="M68.468,67.633c-0.005,-1.485 -0.285,-2.971 -1.285,-4.685l-7.209,-12.359c-0.059,-0.101 -0.024,-0.23 0.076,-0.289l9.441,-5.507c0.033,-0.02 0.068,-0.029 0.104,-0.029c0.029,0 0.127,0.008 0.183,0.105l4.958,8.497c0.774,1.329 0.752,2.966 -0.06,4.271z" fill="#94d82d"></path><path d="M69.843,45.398h0.005h-0.005M69.421,45.644l4.71,8.075c0.644,1.104 0.625,2.464 -0.049,3.549l-5.131,8.26c-0.199,-0.928 -0.558,-1.895 -1.163,-2.934l-6.963,-11.937l8.596,-5.013M69.596,44.064c-0.156,0 -0.314,0.04 -0.458,0.124l-9.442,5.507c-0.435,0.253 -0.581,0.811 -0.328,1.246l7.209,12.359c1.511,2.59 1.249,4.633 0.986,7.114l7.707,-12.407c0.946,-1.523 0.973,-3.445 0.069,-4.994l-4.957,-8.498c-0.167,-0.289 -0.472,-0.451 -0.786,-0.451z" fill="#472b29"></path><g><path d="M53.56,42.868c-0.122,-0.016 -0.166,-0.107 -0.182,-0.182c-0.012,-0.055 -0.024,-0.188 0.106,-0.267l1.633,-0.979l-4.209,-7.836l1.836,-4.867l4.974,-0.038l0.298,0.022c1.447,0.237 2.59,0.978 3.429,2.256l2.715,5.048l1.628,-0.977c0.034,-0.021 0.066,-0.031 0.098,-0.031c0.061,0 0.126,0.038 0.169,0.098c0.048,0.066 0.058,0.144 0.028,0.229l-2.89,8.548c-0.031,0.092 -0.109,0.153 -0.195,0.153z" fill="#94d82d"></path><path d="M57.668,29.4l0.12,0.009l0.109,0.007c1.26,0.218 2.22,0.839 2.93,1.898l2.368,4.397l0.695,1.29l1.12,-0.67l-2.356,6.969l-7.674,-0.96l1.07,-0.641l-0.632,-1.177l-3.743,-6.967l1.555,-4.121l4.438,-0.034M66.147,35.65h0.005h-0.005M57.712,28l-5.454,0.042l-2.118,5.615l4.044,7.528l-1.059,0.634c-0.755,0.453 -0.519,1.635 0.348,1.743l9.412,1.177c0.037,0.004 0.074,0.007 0.11,0.007c0.383,0 0.731,-0.249 0.86,-0.63l2.89,-8.547c0.221,-0.653 -0.279,-1.25 -0.859,-1.25c-0.151,0 -0.308,0.041 -0.459,0.131l-1,0.599l-2.399,-4.454c-0.964,-1.47 -2.301,-2.3 -3.967,-2.569c-0.115,-0.009 -0.233,-0.018 -0.349,-0.026z" fill="#472b29"></path></g><g><path d="M45.013,45.555c-0.031,0 -0.062,-0.008 -0.091,-0.023l-9.654,-5.277c-0.111,-0.061 -0.153,-0.214 -0.091,-0.334l4.61,-8.95c0.721,-1.4 2.121,-2.27 3.653,-2.27l11.832,0.011c-1.287,0.815 -2.424,1.871 -3.369,3.706l-6.707,13.019c-0.038,0.073 -0.107,0.118 -0.183,0.118z" fill="#94d82d"></path><path d="M43.444,29.4l9.798,0.01c-0.716,0.69 -1.377,1.551 -1.962,2.687l-6.476,12.571l-8.807,-4.813l4.412,-8.565c0.601,-1.166 1.762,-1.89 3.031,-1.89h0.004M43.441,28c-1.791,0 -3.436,1.019 -4.276,2.649l-4.611,8.951c-0.236,0.458 -0.067,1.026 0.378,1.269l9.655,5.277c0.136,0.074 0.282,0.109 0.426,0.109c0.326,0 0.642,-0.181 0.805,-0.499l6.706,-13.018c1.405,-2.728 3.28,-3.607 5.527,-4.724l-14.605,-0.014c-0.002,0 -0.004,0 -0.005,0z" fill="#472b29"></path></g><g fill="#472b29"><path d="M70.976,63.595c-0.001,0 -0.003,0 -0.004,0c-0.139,-0.002 -0.248,-0.116 -0.246,-0.254c0.024,-1.481 -0.808,-2.991 -1.414,-4.094l-1.939,-3.519c-0.066,-0.121 -0.022,-0.273 0.098,-0.34c0.122,-0.067 0.273,-0.023 0.34,0.098l1.939,3.52c0.635,1.151 1.503,2.729 1.477,4.343c-0.003,0.136 -0.115,0.246 -0.251,0.246z"></path></g><g fill="#472b29"><path d="M66.791,54.42c-0.088,0 -0.174,-0.047 -0.219,-0.13l-2.334,-4.241c-0.066,-0.12 -0.022,-0.272 0.099,-0.339c0.12,-0.068 0.273,-0.023 0.339,0.099l2.334,4.241c0.066,0.12 0.022,0.272 -0.099,0.339c-0.038,0.021 -0.079,0.031 -0.12,0.031z"></path></g><g fill="#472b29"><path d="M34.756,65.777c-1.262,0 -2.84,-0.064 -4.103,-0.777c-0.12,-0.068 -0.163,-0.221 -0.095,-0.341c0.067,-0.121 0.22,-0.161 0.341,-0.095c1.292,0.729 3.02,0.72 4.277,0.711l3.321,-0.025c0,0 0.001,0 0.002,0c0.137,0 0.249,0.11 0.25,0.248c0.001,0.138 -0.11,0.251 -0.248,0.252l-3.322,0.025c-0.136,0.001 -0.277,0.002 -0.423,0.002z"></path></g><g fill="#472b29"><path d="M40.5,65.777c-0.138,0 -0.249,-0.111 -0.25,-0.249c-0.001,-0.138 0.11,-0.25 0.249,-0.251l5,-0.027h0.001c0.138,0 0.249,0.111 0.25,0.249c0.001,0.138 -0.11,0.25 -0.249,0.251l-5,0.027z"></path></g><g fill="#472b29"><path d="M45.067,35.971c-0.038,0 -0.077,-0.009 -0.113,-0.027c-0.124,-0.063 -0.173,-0.213 -0.11,-0.336l1.568,-3.089c0.597,-1.172 1.414,-2.776 2.766,-3.662c0.114,-0.075 0.27,-0.045 0.346,0.072c0.076,0.115 0.043,0.271 -0.072,0.346c-1.241,0.813 -2.023,2.35 -2.595,3.472l-1.567,3.088c-0.044,0.086 -0.132,0.136 -0.223,0.136z"></path></g><g fill="#472b29"><path d="M42.139,41.635c-0.039,0 -0.077,-0.009 -0.113,-0.027c-0.123,-0.063 -0.172,-0.213 -0.109,-0.336l2.067,-4.059c0.063,-0.124 0.215,-0.172 0.336,-0.109c0.123,0.063 0.172,0.213 0.109,0.336l-2.067,4.059c-0.045,0.086 -0.133,0.136 -0.223,0.136z"></path></g><g><path d="M82.178,68.287c1.883,0 3.517,0 3.54,0c2.11,0 3.821,-1.674 3.821,-3.739c0,-1.802 -1.302,-3.305 -3.035,-3.66c0.02,-0.158 0.034,-0.317 0.034,-0.48c0,-2.139 -1.772,-3.873 -3.957,-3.873c-1.29,0 -2.433,0.607 -3.155,1.543c-0.185,-2.381 -2.358,-4.218 -4.9,-3.913c-1.859,0.223 -3.397,1.629 -3.739,3.431c-0.11,0.578 -0.098,1.139 0.011,1.665c-0.498,-0.525 -1.208,-0.856 -1.998,-0.856c-1.446,0 -2.627,1.102 -2.72,2.494c-0.657,-0.142 -1.371,-0.133 -2.123,0.143c-1.438,0.528 -2.462,1.853 -2.522,3.356c-0.085,2.133 1.657,3.889 3.818,3.889c0.164,0 0.741,0 0.874,0h7.934M75.701,68.287h0.36" fill="#fdfcef"></path><path d="M85.718,68.788h-3.54c-0.276,0 -0.5,-0.224 -0.5,-0.5c0,-0.276 0.224,-0.5 0.5,-0.5h3.54c1.831,0 3.321,-1.453 3.321,-3.239c0,-1.524 -1.108,-2.858 -2.636,-3.17c-0.256,-0.053 -0.429,-0.294 -0.396,-0.554c0.018,-0.137 0.03,-0.275 0.03,-0.417c0,-1.86 -1.551,-3.373 -3.457,-3.373c-1.092,0 -2.098,0.491 -2.76,1.349c-0.126,0.164 -0.341,0.231 -0.539,0.174c-0.198,-0.06 -0.339,-0.234 -0.355,-0.44c-0.079,-1.02 -0.565,-1.944 -1.369,-2.604c-0.829,-0.68 -1.885,-0.979 -2.973,-0.853c-1.646,0.197 -3.006,1.442 -3.307,3.027c-0.094,0.495 -0.091,0.99 0.009,1.472c0.045,0.219 -0.06,0.441 -0.258,0.545c-0.197,0.102 -0.44,0.063 -0.594,-0.1c-0.428,-0.451 -1.009,-0.7 -1.635,-0.7c-1.169,0 -2.145,0.891 -2.221,2.027c-0.01,0.146 -0.082,0.278 -0.198,0.366c-0.116,0.087 -0.264,0.12 -0.406,0.089c-0.639,-0.138 -1.243,-0.098 -1.846,0.125c-1.262,0.463 -2.144,1.631 -2.195,2.905c-0.035,0.876 0.283,1.709 0.895,2.346c0.635,0.66 1.496,1.024 2.423,1.024h8.807c0.276,0 0.5,0.224 0.5,0.5c0,0.276 -0.224,0.5 -0.5,0.5h-8.807c-1.185,0 -2.331,-0.485 -3.144,-1.331c-0.803,-0.836 -1.219,-1.929 -1.173,-3.078c0.067,-1.675 1.212,-3.204 2.849,-3.806c0.61,-0.225 1.24,-0.304 1.88,-0.244c0.344,-1.396 1.629,-2.424 3.135,-2.424c0.493,0 0.977,0.113 1.414,0.323c0.009,-0.242 0.037,-0.484 0.083,-0.727c0.381,-2.009 2.096,-3.585 4.17,-3.833c1.365,-0.167 2.685,0.218 3.726,1.071c0.748,0.613 1.278,1.409 1.546,2.302c0.791,-0.648 1.786,-1.007 2.842,-1.007c2.458,0 4.457,1.962 4.457,4.373c0,0.034 0,0.068 -0.001,0.103c1.764,0.555 3.003,2.188 3.003,4.038c0.001,2.339 -1.937,4.241 -4.32,4.241zM76.061,68.788h-0.36c-0.276,0 -0.5,-0.224 -0.5,-0.5c0,-0.276 0.224,-0.5 0.5,-0.5h0.36c0.276,0 0.5,0.224 0.5,0.5c0,0.276 -0.224,0.5 -0.5,0.5z" fill="#472b29"></path><g fill="#472b29"><path d="M84.011,62.984c-0.018,0 -0.036,-0.002 -0.055,-0.006c-0.135,-0.03 -0.22,-0.164 -0.189,-0.299c0.037,-0.164 0.094,-0.325 0.17,-0.479c0.604,-1.224 2.272,-1.677 3.722,-1.007c0.125,0.058 0.18,0.206 0.122,0.331c-0.058,0.126 -0.207,0.179 -0.332,0.122c-1.201,-0.556 -2.577,-0.208 -3.063,0.774c-0.058,0.118 -0.102,0.242 -0.13,0.367c-0.027,0.118 -0.13,0.197 -0.245,0.197z"></path></g><g fill="#472b29"><path d="M78.852,68.788h-1.107c-0.276,0 -0.5,-0.224 -0.5,-0.5c0,-0.276 0.224,-0.5 0.5,-0.5h1.107c0.276,0 0.5,0.224 0.5,0.5c0,0.276 -0.223,0.5 -0.5,0.5z"></path></g></g></g></g></svg>